# xmcd CD database file
#
# Track frame offsets:
#	150
#	21496
#	36788
#	60000
#	78217
#	97518
#	117650
#	133341
#	148127
#	167397
#	188444
#	202204
#	227656
#
# Disc length: 3339 seconds
#
# Revision: 0
# Processed by: cddbd v1.5.2PL0 Copyright (c) Steve Scherf et al.
# Submitted via: CDex 1.51
#
DISCID=a60d090d
DTITLE=New Orleans Racket Makers - New Orleans Racket Makers
DYEAR=1900
DGENRE=Jazz
TTITLE0=Lay Your Racket
TTITLE1=Boola Hoo (Boola Boo)
TTITLE2=Delta Bound
TTITLE3=Eh, la Bas
TTITLE4=Sweet Patootie
TTITLE5=How Could Red Riding Hood?
TTITLE6=Getting Some Fun Out of Life
TTITLE7=New Orleans
TTITLE8=Creole Song (C'est l'autre Cancan)
TTITLE9=I Would Do Anything for You
TTITLE10=Let's Incorporate
TTITLE11=Sweet Lotus Blossom
TTITLE12=I Can't Dance (I Got Ants in My Pants)
EXTD=
EXTT0=
EXTT1=
EXTT2=
EXTT3=
EXTT4=
EXTT5=
EXTT6=
EXTT7=
EXTT8=
EXTT9=
EXTT10=
EXTT11=
EXTT12=
PLAYORDER=
